<?xml version="1.0" encoding="utf-8"?>
<!-- Generator: Adobe Illustrator 21.1.0, SVG Export Plug-In . SVG Version: 6.00 Build 0)  -->
<svg version="1.1" id="Layer_1" xmlns="http://www.w3.org/2000/svg" xmlns:xlink="http://www.w3.org/1999/xlink" x="0px" y="0px"
	 viewBox="0 0 22 22" style="enable-background:new 0 0 22 22;" xml:space="preserve">
<style type="text/css">
	.st0{fill:#FFFFFF;}
	.st1{fill:#B82E22;}
	.st2{fill:#004CC1;}
	.st3{clip-path:url(#SVGID_2_);fill:#FFFFFF;}
	.st4{clip-path:url(#SVGID_4_);fill:#FFFFFF;}
	.st5{fill:#E2E2E2;}
</style>
<circle class="st0" cx="11" cy="11" r="11"/>
<circle class="st1" cx="11" cy="11" r="8"/>
<circle class="st0" cx="11" cy="11" r="11"/>
<circle class="st0" cx="11" cy="11" r="8"/>
<circle class="st2" cx="11" cy="11" r="8"/>
<g>
	<g>
		<g>
			<defs>
				<circle id="SVGID_1_" cx="11" cy="11" r="8"/>
			</defs>
			<clipPath id="SVGID_2_">
				<use xlink:href="#SVGID_1_"  style="overflow:visible;"/>
			</clipPath>
			<rect x="6.7" y="0" class="st3" width="2.9" height="21.9"/>
		</g>
	</g>
	<g>
		<g>
			<defs>
				<circle id="SVGID_3_" cx="11" cy="11" r="8"/>
			</defs>
			<clipPath id="SVGID_4_">
				<use xlink:href="#SVGID_3_"  style="overflow:visible;"/>
			</clipPath>
			<rect x="12.4" y="0" class="st4" width="2.9" height="21.9"/>
		</g>
	</g>
</g>
<rect x="6.7" y="2.1" class="st0" width="2.9" height="18.2"/>
<rect x="12.4" y="2.1" class="st0" width="2.9" height="18.2"/>
<g>
	<path class="st5" d="M11,0C4.9,0,0,4.9,0,11s4.9,11,11,11s11-4.9,11-11S17.1,0,11,0z M11,19c-4.4,0-8-3.6-8-8s3.6-8,8-8s8,3.6,8,8
		S15.4,19,11,19z"/>
</g>
</svg>
