<?xml version="1.0" encoding="utf-8"?>
<svg version="1.1" id="Layer_1" x="0px" y="0px" viewBox="-286 409.9 22 22" style="enable-background:new -286 409.9 22 22;" xmlns="http://www.w3.org/2000/svg">
  <style type="text/css">
	.st0{fill:#B82E22;}
	.st1{fill:#FFFFFF;}
	.st2{fill:#243B72;}
	.st3{fill:#2E59BA;}
	.st4{fill:#E2E2E2;}
</style>
  <circle class="st0" cx="-275" cy="420.9" r="8"/>
  <circle class="st2" cx="-275" cy="420.9" r="8" style="fill: rgb(23, 37, 72);" transform="matrix(1.045, 0, 0, 1.085, 12.375, -35.776501)"/>
  <path class="st2" d="M -273.876 409.006 C -278.743 409.006 -282.724 412.873 -282.724 417.6 C -282.724 422.327 -278.743 426.194 -273.876 426.194 L -273.876 409.006 Z" style="fill: rgb(45, 92, 174);" transform="matrix(0.707107, 0.707107, -0.707107, 0.707107, 213.775612, 319.100029)"/>
  <path class="st3" d="M -276.083 415.251 C -271.372 415.251 -267.517 419.233 -267.517 424.1 C -267.517 428.967 -271.372 432.949 -276.083 432.949 L -276.083 415.251 Z" style="fill: rgb(30, 30, 30);" transform="matrix(0.707107, 0.707107, -0.707107, 0.707107, 220.275613, 316.407641)"/>
  <g transform="matrix(1, 0, 0, 1, 0, 0.000006)">
    <path class="st4" d="M-275,409.9c-6.1,0-11,4.9-11,11c0,6.1,4.9,11,11,11s11-4.9,11-11C-264,414.8-268.9,409.9-275,409.9z M-275,428.9c-4.4,0-8-3.6-8-8c0-4.4,3.6-8,8-8s8,3.6,8,8C-267,425.3-270.6,428.9-275,428.9z" style=""/>
  </g>
</svg>