<?xml version="1.0" encoding="utf-8"?>
<svg version="1.1" id="Layer_1" x="0px" y="0px" viewBox="-286 409.9 22 22" style="enable-background:new -286 409.9 22 22;" xmlns="http://www.w3.org/2000/svg">
  <style type="text/css">
	.st0{fill:#B82E22;}
	.st1{fill:#FFFFFF;}
	.st2{fill:#243B72;}
	.st3{fill:#2E59BA;}
	.st4{fill:#E2E2E2;}
</style>
  <circle class="st0" cx="-275" cy="420.9" r="8"/>
  <circle class="st2" cx="-275" cy="420.9" r="8"/>
  <path class="st2" d="M -275 429.18 C -279.576 429.18 -283.32 425.445 -283.32 420.88 C -283.32 416.315 -279.576 412.58 -275 412.58 L -275 429.18 Z" style="fill: rgb(0, 0, 0);"/>
  <path class="st3" d="M -275 412.62 C -270.358 412.62 -266.56 416.328 -266.56 420.86 C -266.56 425.392 -270.358 429.1 -275 429.1 L -275 412.62 Z" style="fill: rgb(225, 51, 39);"/>
  <g transform="matrix(1, 0, 0, 1, 0, 0.000006)">
    <path class="st4" d="M-275,409.9c-6.1,0-11,4.9-11,11c0,6.1,4.9,11,11,11s11-4.9,11-11C-264,414.8-268.9,409.9-275,409.9z M-275,428.9c-4.4,0-8-3.6-8-8c0-4.4,3.6-8,8-8s8,3.6,8,8C-267,425.3-270.6,428.9-275,428.9z" style="fill: rgb(252, 188, 23);"/>
  </g>
</svg>