<?xml version="1.0" encoding="utf-8"?>
<svg version="1.1" id="Layer_1" x="0px" y="0px" viewBox="-286 409.9 22 22" style="enable-background:new -286 409.9 22 22;" xmlns="http://www.w3.org/2000/svg">
  <style type="text/css">
	.st0{fill:#B82E22;}
	.st1{fill:#FFFFFF;}
	.st2{fill:#243B72;}
	.st3{fill:#DF3536;}
	.st4{fill:#2E59BA;}
	.st5{fill:#E2E2E2;}
</style>
  <circle class="st0" cx="-275" cy="420.9" r="8"/>
  <circle class="st2" cx="-275" cy="420.9" r="8"/>
  <path class="st3" d="M-275,428.9c-4.4,0-8-3.6-8-8c0-4.4,3.6-8,8-8V428.9z" style="fill: rgb(239, 1, 7);"/>
  <path class="st4" d="M-275,412.9c4.4,0,8,3.6,8,8c0,4.4-3.6,8-8,8V412.9z" style="fill: rgb(219, 0, 7);"/>
  <g transform="matrix(1, 0, 0, 1, 0, 0.000006)">
    <path class="st5" d="M-275,409.9c-6.1,0-11,4.9-11,11c0,6.1,4.9,11,11,11s11-4.9,11-11C-264,414.8-268.9,409.9-275,409.9z M-275,428.9c-4.4,0-8-3.6-8-8c0-4.4,3.6-8,8-8s8,3.6,8,8C-267,425.3-270.6,428.9-275,428.9z" style="fill: rgb(156, 130, 74);"/>
  </g>
  <g transform="matrix(1, 0, 0, 1, -286, 409.899994)">
    <g>
      <defs>
        <circle id="SVGID_1_" cx="11" cy="11" r="8"/>
      </defs>
      <clipPath id="SVGID_2_">
        <circle cx="11" cy="11" r="8" transform="matrix(1, 0, 0, 1, 0, 0)" style="overflow: visible;"/>
      </clipPath>
      <g class="st2" style="clip-path: url(#SVGID_2_); fill: rgb(0, 0, 0);">
        <rect y="0" class="st3" width="6.4" height="22" style="fill: rgb(2, 52, 116);"/>
        <rect x="15.6" y="0" class="st3" width="6.4" height="22" style="fill: rgb(2, 52, 116);"/>
      </g>
    </g>
  </g>
</svg>