<?xml version="1.0" encoding="utf-8"?>
<svg version="1.1" id="Layer_1" x="0px" y="0px" viewBox="-286 409.9 22 22" style="enable-background:new -286 409.9 22 22;" xmlns="http://www.w3.org/2000/svg">
  <defs>
    <radialGradient gradientUnits="userSpaceOnUse" cx="-275" cy="420.9" r="11" id="gradient-0">
      <stop offset="0" style="stop-color: rgba(67, 125, 242, 1)"/>
      <stop offset="1" style="stop-color: rgba(13, 73, 194, 1)"/>
    </radialGradient>
  </defs>
  <style type="text/css">
	.st0{fill:#B82E22;}
	.st1{fill:#FFFFFF;}
	.st2{fill:#243B72;}
	.st3{fill:#2E59BA;}
	.st4{fill:#E2E2E2;}
</style>
  <circle class="st0" cx="-275" cy="420.9" r="8"/>
  <circle class="st2" cx="-275" cy="420.9" r="8" style="fill: rgb(23, 37, 72);"/>
  <path class="st2" d="M -274 409.9 C -278.4 409.9 -282 413.5 -282 417.9 C -282 422.3 -278.4 425.9 -274 425.9 L -274 409.9 Z" style="fill: rgb(67, 126, 242);" transform="matrix(0.707107, 0.707107, -0.707107, 0.707107, 214.075605, 318.97576)"/>
  <path class="st3" d="M -276 415.9 C -271.6 415.9 -268 419.5 -268 423.9 C -268 428.3 -271.6 431.9 -276 431.9 L -276 415.9 Z" style="fill: rgb(255, 255, 255);" transform="matrix(0.707107, 0.707107, -0.707107, 0.707107, 220.075605, 316.490478)"/>
  <g transform="matrix(1, 0, 0, 1, 0, 0.000006)">
    <path class="st4" d="M-275,409.9c-6.1,0-11,4.9-11,11c0,6.1,4.9,11,11,11s11-4.9,11-11C-264,414.8-268.9,409.9-275,409.9z M-275,428.9c-4.4,0-8-3.6-8-8c0-4.4,3.6-8,8-8s8,3.6,8,8C-267,425.3-270.6,428.9-275,428.9z" style="fill: url(#gradient-0);"/>
  </g>
</svg>