<?xml version="1.0" encoding="utf-8"?>
<svg version="1.1" id="Layer_1" x="0px" y="0px" viewBox="-286 409.9 22 22" style="enable-background:new -286 409.9 22 22;" xmlns="http://www.w3.org/2000/svg">
  <style type="text/css">
	.st0{fill:#B82E22;}
	.st1{fill:#FFFFFF;}
	.st2{fill:#243B72;}
	.st3{fill:#2E59BA;}
	.st4{fill:#E2E2E2;}
</style>
  <circle class="st0" cx="-275" cy="420.9" r="8"/>
  <circle class="st2" cx="-275" cy="420.9" r="8"/>
  <path class="st2" d="M -274.44 429.46 C -279.456 429.46 -283.56 425.608 -283.56 420.9 C -283.56 416.192 -279.456 412.34 -274.44 412.34 L -274.44 429.46 Z" style="fill: rgb(236, 28, 36);"/>
  <path class="st3" d="M -275 412.5 C -270.116 412.5 -266.12 416.19 -266.12 420.7 C -266.12 425.21 -270.116 428.9 -275 428.9 L -275 412.5 Z" style="fill: rgb(255, 242, 0);"/>
  <g transform="matrix(1, 0, 0, 1, 0, 0.000006)">
    <path class="st4" d="M-275,409.9c-6.1,0-11,4.9-11,11c0,6.1,4.9,11,11,11s11-4.9,11-11C-264,414.8-268.9,409.9-275,409.9z M-275,428.9c-4.4,0-8-3.6-8-8c0-4.4,3.6-8,8-8s8,3.6,8,8C-267,425.3-270.6,428.9-275,428.9z" style="fill: rgb(0, 0, 0);"/>
  </g>
</svg>