<?xml version="1.0" encoding="utf-8"?>
<svg version="1.1" id="Layer_1" x="0px" y="0px" viewBox="-286 409.9 22 22" style="enable-background:new -286 409.9 22 22;" xmlns="http://www.w3.org/2000/svg">
  <style type="text/css">
	.st0{fill:#FFFFFF;}
	.st1{fill:#B82E22;}
	.st2{fill:#373737;}
	.st3{clip-path:url(#SVGID_2_);fill:#FFFFFF;}
	.st4{clip-path:url(#SVGID_4_);fill:#FFFFFF;}
	.st5{fill:#DF3636;}
	.st6{fill:#E2E2E2;}
</style>
  <circle class="st0" cx="-275" cy="420.9" r="11"/>
  <circle class="st1" cx="-275" cy="420.9" r="8"/>
  <circle class="st0" cx="-275" cy="420.9" r="11"/>
  <circle class="st0" cx="-275" cy="420.9" r="8"/>
  <circle class="st2" cx="-275" cy="420.9" r="8" style="fill: rgb(0, 103, 177);"/>
  <rect x="-273.6" y="196.863" class="st5" width="2.9" height="8.696" style="fill-rule: nonzero; paint-order: fill; fill: rgb(0, 103, 177);" transform="matrix(0.707107, 0.707107, -0.707107, 0.707107, 53.61721, 465.161163)"/>
  <rect x="-273.6" y="196.493" class="st5" width="2.9" height="8.68" style="fill-rule: nonzero; paint-order: fill; fill: rgb(0, 103, 177);" transform="matrix(0.707107, 0.707107, -0.707107, 0.707107, 65.465324, 477.313049)"/>
  <rect x="-279.3" y="412" class="st5" width="2.9" height="18.2" style="fill: rgb(255, 255, 255);" transform="matrix(0.707107, -0.707107, 0.707107, 0.707107, -376.293091, -73.332436)"/>
  <rect x="-279.3" y="393.935" class="st5" width="2.9" height="17.402" style="fill: rgb(255, 255, 255);" transform="matrix(0.707107, -0.707107, 0.707107, 0.707107, -366.340454, -57.379803)"/>
  <rect x="-273.6" y="200.522" class="st5" width="2.9" height="8.858" style="fill-rule: nonzero; paint-order: fill; fill: rgb(0, 103, 177);" transform="matrix(0.707107, -0.707107, 0.707107, 0.707107, -221.519531, 77.502121)"/>
  <rect x="-279.3" y="397.549" class="st5" width="2.9" height="17.561" style="fill: rgb(255, 255, 255);" transform="matrix(0.707107, -0.707107, 0.707107, 0.707107, -362.745758, -65.785103)"/>
  <rect x="-273.6" y="200.064" class="st5" width="2.9" height="8.838" style="fill-rule: nonzero; paint-order: fill; fill: rgb(0, 103, 177);" transform="matrix(0.707107, -0.707107, 0.707107, 0.707107, -233.238205, 89.783424)"/>
  <rect x="-279.3" y="412" class="st5" width="2.9" height="18.2" style="fill: rgb(255, 255, 255);" transform="matrix(0.707107, 0.707107, -0.707107, 0.707107, 219.232437, 319.606903)"/>
  <rect x="-273.6" y="371.021" class="st5" width="2.9" height="16.39" style="fill-rule: nonzero; paint-order: fill; fill: rgb(255, 255, 255);" transform="matrix(0.707107, 0.707107, -0.707107, 0.707107, 182.32518, 342.453156)"/>
  <rect x="-279.3" y="385.11" class="st5" width="2.9" height="17.012" style="fill: rgb(255, 255, 255);" transform="matrix(0.707107, 0.707107, -0.707107, 0.707107, 202.87764, 341.961731)"/>
  <g>
    <path class="st6" d="M-275,409.9c-6.1,0-11,4.9-11,11c0,6.1,4.9,11,11,11s11-4.9,11-11C-264,414.8-268.9,409.9-275,409.9z M-275,428.9c-4.4,0-8-3.6-8-8c0-4.4,3.6-8,8-8s8,3.6,8,8C-267,425.3-270.6,428.9-275,428.9z" style="fill: rgb(220, 5, 45);"/>
  </g>
</svg>