<?xml version="1.0" encoding="utf-8"?>
<!-- Generator: Adobe Illustrator 19.0.1, SVG Export Plug-In . SVG Version: 6.00 Build 0)  -->
<!DOCTYPE svg PUBLIC "-//W3C//DTD SVG 1.1//EN" "http://www.w3.org/Graphics/SVG/1.1/DTD/svg11.dtd">
<svg version="1.1" id="Layer_1" xmlns="http://www.w3.org/2000/svg" xmlns:xlink="http://www.w3.org/1999/xlink" x="0px" y="0px"
	 viewBox="-286 409.9 22 22" style="enable-background:new -286 409.9 22 22;" xml:space="preserve">
<style type="text/css">
	.st0{fill:#FFFFFF;}
	.st1{fill:#B82E22;}
	.st2{fill:#373737;}
	.st3{clip-path:url(#SVGID_2_);fill:#FFFFFF;}
	.st4{clip-path:url(#SVGID_4_);fill:#FFFFFF;}
	.st5{fill:#DF3636;}
	.st6{fill:#E2E2E2;}
</style>
<circle class="st0" cx="-275" cy="420.9" r="11"/>
<circle class="st1" cx="-275" cy="420.9" r="8"/>
<circle class="st0" cx="-275" cy="420.9" r="11"/>
<circle class="st0" cx="-275" cy="420.9" r="8"/>
<circle class="st2" cx="-275" cy="420.9" r="8"/>
<g>
	<g>
		<defs>
			<circle id="SVGID_1_" cx="-275" cy="420.9" r="8"/>
		</defs>
		<clipPath id="SVGID_2_">
			<use xlink:href="#SVGID_1_"  style="overflow:visible;"/>
		</clipPath>
		<rect x="-279.3" y="409.9" class="st3" width="2.9" height="21.9"/>
	</g>
	<g>
		<defs>
			<circle id="SVGID_3_" cx="-275" cy="420.9" r="8"/>
		</defs>
		<clipPath id="SVGID_4_">
			<use xlink:href="#SVGID_3_"  style="overflow:visible;"/>
		</clipPath>
		<rect x="-273.6" y="409.9" class="st4" width="2.9" height="21.9"/>
	</g>
</g>
<rect x="-279.3" y="412" class="st5" width="2.9" height="18.2"/>
<rect x="-273.6" y="412" class="st5" width="2.9" height="18.2"/>
<g>
	<path class="st6" d="M-275,409.9c-6.1,0-11,4.9-11,11c0,6.1,4.9,11,11,11s11-4.9,11-11C-264,414.8-268.9,409.9-275,409.9z
		 M-275,428.9c-4.4,0-8-3.6-8-8c0-4.4,3.6-8,8-8s8,3.6,8,8C-267,425.3-270.6,428.9-275,428.9z"/>
</g>
</svg>
