<?xml version="1.0" encoding="utf-8"?>
<svg version="1.1" id="Layer_1" x="0px" y="0px" viewBox="-286 409.9 22 22" style="enable-background:new -286 409.9 22 22;" xmlns="http://www.w3.org/2000/svg">
  <defs>
    <linearGradient gradientUnits="userSpaceOnUse" x1="-275" y1="409.9" x2="-275" y2="431.9" id="gradient-0">
      <stop offset="0" style="stop-color: rgba(36, 33, 106, 1)"/>
      <stop offset="1" style="stop-color: rgba(9, 9, 28, 1)"/>
    </linearGradient>
  </defs>
  <style type="text/css">
	.st0{fill:#B82E22;}
	.st1{fill:#FFFFFF;}
	.st2{fill:#243B72;}
	.st3{fill:#2E59BA;}
	.st4{fill:#E2E2E2;}
</style>
  <circle class="st0" cx="-275" cy="420.9" r="8"/>
  <circle class="st2" cx="-275" cy="420.9" r="8"/>
  <path class="st2" d="M -274.4 429.42 C -279.46 429.42 -283.6 425.586 -283.6 420.9 C -283.6 416.214 -279.46 412.38 -274.4 412.38 L -274.4 429.42 Z" style="fill: rgb(224, 30, 19);"/>
  <path class="st3" d="M -275.76 412.38 C -270.524 412.38 -266.24 416.214 -266.24 420.9 C -266.24 425.586 -270.524 429.42 -275.76 429.42 L -275.76 412.38 Z" style="fill: rgb(36, 33, 106);"/>
  <rect x="-276.25" y="411.8" class="st5" width="2.5" height="18.2" style="fill: rgb(255, 255, 255);"/>
  <g transform="matrix(1, 0, 0, 1, 0, 0.000006)">
    <path class="st4" d="M-275,409.9c-6.1,0-11,4.9-11,11c0,6.1,4.9,11,11,11s11-4.9,11-11C-264,414.8-268.9,409.9-275,409.9z M-275,428.9c-4.4,0-8-3.6-8-8c0-4.4,3.6-8,8-8s8,3.6,8,8C-267,425.3-270.6,428.9-275,428.9z" style="fill: url(#gradient-0);"/>
  </g>
</svg>