<?xml version="1.0" encoding="utf-8"?>
<svg version="1.1" id="Layer_1" x="0px" y="0px" viewBox="0 0 22 22" style="enable-background:new 0 0 22 22;" xmlns="http://www.w3.org/2000/svg">
  <defs>
    <linearGradient gradientUnits="userSpaceOnUse" x1="11" y1="0" x2="11" y2="22" id="gradient-2">
      <stop offset="0" style="stop-color: rgba(218, 2, 13, 1)"/>
      <stop offset="1" style="stop-color: rgba(117, 1, 7, 1)"/>
    </linearGradient>
  </defs>
  <style type="text/css">
	.st0{fill:#FFFFFF;}
	.st1{fill:#B82E22;}
	.st2{clip-path:url(#SVGID_2_);}
	.st3{fill:#373737;}
	.st4{fill:#E2E2E2;}
</style>
  <circle class="st1" cx="11" cy="11" r="8"/>
  <circle class="st0" cx="11" cy="11" r="8"/>
  <circle class="st0" cx="11" cy="11" r="8" style="fill: rgb(255, 229, 0);"/>
  <g>
    <g>
      <defs>
        <circle id="SVGID_1_" cx="11" cy="11" r="8"/>
      </defs>
      <clipPath id="SVGID_2_">
        <circle cx="11" cy="11" r="8" transform="matrix(1, 0, 0, 1, 0, 0)" style="overflow: visible;"/>
      </clipPath>
      <g class="st2">
        <rect y="0" class="st3" width="6.4" height="22" style="fill: rgb(218, 2, 13);"/>
        <rect x="15.6" y="0" class="st3" width="6.4" height="22" style="fill: rgb(218, 2, 13);"/>
      </g>
    </g>
  </g>
  <g>
    <path class="st4" d="M11,0C4.9,0,0,4.9,0,11s4.9,11,11,11s11-4.9,11-11S17.1,0,11,0z M11,19c-4.4,0-8-3.6-8-8s3.6-8,8-8s8,3.6,8,8 S15.4,19,11,19z" style="fill: url(#gradient-2);"/>
  </g>
</svg>