<?xml version="1.0" encoding="utf-8"?>
<svg version="1.1" id="Layer_1" x="0px" y="0px" viewBox="-286 409.9 22 22" style="enable-background:new -286 409.9 22 22;" xmlns="http://www.w3.org/2000/svg">
  <style type="text/css">
	.st0{fill:#FFFFFF;}
	.st1{fill:#B82E22;}
	.st2{fill:#A82323;}
	.st3{clip-path:url(#SVGID_2_);}
	.st4{fill:#4AC5E8;}
	.st5{fill:#E2E2E2;}
</style>
  <circle class="st1" cx="-275" cy="420.9" r="8"/>
  <circle class="st0" cx="-275" cy="420.9" r="8" style="fill: rgb(47, 174, 224);"/>
  <g style="" transform="matrix(1.087273, 0, 0, 1, 24, 0)">
    <g>
      <defs>
        <circle id="SVGID_1_" cx="-275" cy="420.9" r="8"/>
      </defs>
      <clipPath id="SVGID_2_">
        <circle cx="-275" cy="420.9" r="8" transform="matrix(1, 0, 0, 1, 0, 0)" style="overflow: visible;"/>
      </clipPath>
      <g class="st3">
        <rect x="-286" y="409.9" class="st4" width="6.4" height="22" style="fill: rgb(255, 255, 255);"/>
        <rect x="-270.4" y="409.9" class="st4" width="6.4" height="22" style="fill: rgb(255, 255, 255);"/>
      </g>
    </g>
  </g>
  <rect x="-276.45" y="411.8" class="st5" width="2.9" height="18.2" style="fill: rgb(255, 255, 255);"/>
  <g transform="matrix(1, 0, 0, 1, 0, 0.000006)">
    <path class="st5" d="M-275,409.9c-6.1,0-11,4.9-11,11c0,6.1,4.9,11,11,11s11-4.9,11-11C-264,414.8-268.9,409.9-275,409.9z M-275,428.9c-4.4,0-8-3.6-8-8c0-4.4,3.6-8,8-8s8,3.6,8,8C-267,425.3-270.6,428.9-275,428.9z" style="fill: rgb(190, 160, 100);"/>
  </g>
</svg>