<?xml version="1.0" encoding="utf-8"?>
<svg version="1.1" id="Layer_1" x="0px" y="0px" viewBox="-286 409.9 22 22" style="enable-background:new -286 409.9 22 22;" xmlns="http://www.w3.org/2000/svg">
  <style type="text/css">
	.st0{fill:#B82E22;}
	.st1{fill:#FFFFFF;}
	.st2{fill:#243B72;}
	.st3{fill:#2E59BA;}
	.st4{fill:#E2E2E2;}
</style>
  <circle class="st0" cx="-275" cy="420.9" r="8"/>
  <circle class="st2" cx="-275" cy="420.9" r="8"/>
  <path class="st2" d="M -275 429.42 C -279.664 429.42 -283.48 425.586 -283.48 420.9 C -283.48 416.214 -279.664 412.38 -275 412.38 L -275 429.42 Z" style="fill: rgb(176, 16, 40);"/>
  <path class="st3" d="M -275 412.26 C -270.182 412.26 -266.24 416.112 -266.24 420.82 C -266.24 425.528 -270.182 429.38 -275 429.38 L -275 412.26 Z" style="fill: rgb(8, 34, 66);"/>
  <g transform="matrix(1, 0, 0, 1, 0, 0.000006)">
    <path class="st4" d="M-275,409.9c-6.1,0-11,4.9-11,11c0,6.1,4.9,11,11,11s11-4.9,11-11C-264,414.8-268.9,409.9-275,409.9z M-275,428.9c-4.4,0-8-3.6-8-8c0-4.4,3.6-8,8-8s8,3.6,8,8C-267,425.3-270.6,428.9-275,428.9z" style=""/>
  </g>
</svg>