<?xml version="1.0" encoding="utf-8"?>
<svg version="1.1" id="Layer_1" x="0px" y="0px" viewBox="-286 409.9 22 22" style="enable-background:new -286 409.9 22 22;" xmlns="http://www.w3.org/2000/svg">
  <style type="text/css">
	.st0{fill:#B82E22;}
	.st1{fill:#FFFFFF;}
	.st2{fill:#DF3536;}
	.st3{fill:#E2E2E2;}
</style>
  <circle class="st0" cx="-275" cy="420.9" r="8"/>
  <circle class="st1" cx="-275" cy="420.9" r="11"/>
  <circle class="st1" cx="-275" cy="420.9" r="8"/>
  <path class="st1" d="M-275,428.9c-4.4,0-8-3.6-8-8c0-4.4,3.6-8,8-8V428.9z" style="fill: rgb(86, 172, 234);"/>
  <path class="st2" d="M-275,412.9c4.4,0,8,3.6,8,8c0,4.4-3.6,8-8,8V412.9z" style="fill: rgb(201, 31, 31);"/>
  <g>
    <path class="st3" d="M-275,409.9c-6.1,0-11,4.9-11,11c0,6.1,4.9,11,11,11s11-4.9,11-11C-264,414.8-268.9,409.9-275,409.9z M-275,428.9c-4.4,0-8-3.6-8-8c0-4.4,3.6-8,8-8s8,3.6,8,8C-267,425.3-270.6,428.9-275,428.9z"/>
  </g>
</svg>