<?xml version="1.0" encoding="utf-8"?>
<svg version="1.1" id="Layer_1" x="0px" y="0px" viewBox="-286 409.9 22 22" style="enable-background:new -286 409.9 22 22;" xmlns="http://www.w3.org/2000/svg">
  <style type="text/css">
	.st0{fill:#B82E22;}
	.st1{fill:#FFFFFF;}
	.st2{fill:#243B72;}
	.st3{fill:#2E59BA;}
	.st4{fill:#E2E2E2;}
</style>
  <circle class="st0" cx="-275" cy="420.9" r="8"/>
  <circle class="st2" cx="-275" cy="420.9" r="8"/>
  <path class="st2" d="M -270.72 425.14 C -275.516 425.14 -279.44 421.27 -279.44 416.54 C -279.44 411.81 -275.516 407.94 -270.72 407.94 L -270.72 425.14 Z" style="fill: rgb(251, 186, 0);" transform="matrix(0, 1, -1, 0, 141.460006, 691.620011)"/>
  <path class="st3" d="M -279.5 416.76 C -274.638 416.76 -270.66 420.612 -270.66 425.32 C -270.66 430.028 -274.638 433.88 -279.5 433.88 L -279.5 416.76 Z" style="fill: rgb(151, 10, 44);" transform="matrix(0, 1, -1, 0, 150.240005, 700.40001)"/>
  <g transform="matrix(1, 0, 0, 1, 0, 0.000006)">
    <path class="st4" d="M-275,409.9c-6.1,0-11,4.9-11,11c0,6.1,4.9,11,11,11s11-4.9,11-11C-264,414.8-268.9,409.9-275,409.9z M-275,428.9c-4.4,0-8-3.6-8-8c0-4.4,3.6-8,8-8s8,3.6,8,8C-267,425.3-270.6,428.9-275,428.9z" style="fill: rgb(0, 0, 0);"/>
  </g>
</svg>