<?xml version="1.0" encoding="utf-8"?>
<svg fill="#000000" width="500px" height="500px" viewBox="0 0 20 20" version="1.1" xmlns="http://www.w3.org/2000/svg">
  <defs/>
  <title>hxt57t2q</title>
  <path y="2.863" width="26.157" height="8.275" style="fill: rgb(128, 128, 128); stroke: rgb(128, 128, 128);" x="2.922" d="M1.826 1.789H18.174V6.961H1.826V1.789z"/>
  <path y="20.863" width="26.157" height="8.275" style="stroke: rgb(128, 128, 128); fill: rgb(128, 128, 128);" x="2.922" d="M1.826 13.039H18.174V18.211H1.826V13.039z"/>
  <path y="11.863" width="26.157" height="8.275" style="fill: rgb(0, 64, 119); stroke: rgb(0, 64, 119);" x="2.922" d="M1.826 7.414H18.174V12.586H1.826V7.414z"/>
  <path d="M16.25 0.469H3.75A3.286 3.286 0 0 0 0.469 3.75v12.5A3.286 3.286 0 0 0 3.75 19.531h12.5A3.286 3.286 0 0 0 19.531 16.25V3.75A3.286 3.286 0 0 0 16.25 0.469zM17.969 16.25A1.721 1.721 0 0 1 16.25 17.969H3.75A1.721 1.721 0 0 1 2.031 16.25V3.75A1.721 1.721 0 0 1 3.75 2.031h12.5A1.721 1.721 0 0 1 17.969 3.75z" style="stroke: rgb(26, 26, 26); fill: rgb(26, 26, 26);"/>
</svg>