<?xml version="1.0" encoding="utf-8"?>
<svg fill="#000000" width="800px" height="800px" viewBox="0 0 32 32" version="1.1" xmlns="http://www.w3.org/2000/svg" xmlns:bx="https://boxy-svg.com">
  <defs>
    <style bx:fonts="Saira">@import url(https://fonts.googleapis.com/css2?family=Saira%3Aital%2Cwght%400%2C100..900%3B1%2C100..900&amp;display=swap);</style>
  </defs>
  <title>W8mj7MDD</title>
  <rect y="2.863" width="26.157" height="8.275" style="fill: rgb(255, 255, 255); stroke: rgb(255, 255, 255);" x="2.922"/>
  <rect y="20.863" width="26.157" height="8.275" style="stroke: rgb(255, 255, 255); fill: rgb(255, 255, 255);" x="2.922"/>
  <rect y="11.863" width="26.157" height="8.275" style="fill: rgb(222, 222, 222); stroke: rgb(222, 222, 222);" x="2.922"/>
  <path d="M26 0.75h-20c-2.898 0.004-5.246 2.352-5.25 5.25v20c0.004 2.898 2.352 5.246 5.25 5.25h20c2.898-0.004 5.246-2.352 5.25-5.25v-20c-0.004-2.898-2.352-5.246-5.25-5.25h-0zM28.75 26c-0.002 1.518-1.232 2.748-2.75 2.75h-20c-1.518-0.002-2.748-1.232-2.75-2.75v-20c0.002-1.518 1.232-2.748 2.75-2.75h20c1.518 0.002 2.748 1.232 2.75 2.75v0z" style="stroke: rgb(26, 26, 26); fill: rgb(26, 26, 26);"/>
  <text style="font-family: Saira; font-size: 8px; font-weight: 700; white-space: pre;" x="6.952" y="18.784">RMA</text>
</svg>