<?xml version="1.0" encoding="utf-8"?>
<svg version="1.1" id="Layer_1" x="0px" y="0px" viewBox="-286 409.9 22 22" style="enable-background:new -286 409.9 22 22;" xmlns="http://www.w3.org/2000/svg">
  <style type="text/css">
	.st0{fill:#B82E22;}
	.st1{fill:#FFFFFF;}
	.st2{fill:#243B72;}
	.st3{fill:#2E59BA;}
	.st4{fill:#E2E2E2;}
</style>
  <circle class="st0" cx="-275" cy="420.9" r="8"/>
  <circle class="st1" cx="-275" cy="420.9" r="11"/>
  <circle class="st2" cx="-275" cy="420.9" r="8"/>
  <path class="st2" d="M -271 424.9 C -275.4 424.9 -279 421.3 -279 416.9 C -279 412.5 -275.4 408.9 -271 408.9 L -271 424.9 Z" style="fill: rgb(0, 151, 57);" transform="matrix(0, 1, -1, 0, 141.899994, 691.899994)"/>
  <path class="st3" d="M -279 416.9 C -274.6 416.9 -271 420.5 -271 424.9 C -271 429.3 -274.6 432.9 -279 432.9 L -279 416.9 Z" style="fill: rgb(0, 151, 57);" transform="matrix(0, 1, -1, 0, 149.899994, 699.899994)"/>
  <g transform="matrix(1, 0, 0, 1, 0, -0.000031)">
    <path class="st4" d="M-275,409.9c-6.1,0-11,4.9-11,11c0,6.1,4.9,11,11,11s11-4.9,11-11C-264,414.8-268.9,409.9-275,409.9z M-275,428.9c-4.4,0-8-3.6-8-8c0-4.4,3.6-8,8-8s8,3.6,8,8C-267,425.3-270.6,428.9-275,428.9z" style=""/>
  </g>
  <rect x="-369.7" y="556.764" width="8" height="8" style="fill: rgb(254, 221, 0); stroke: rgb(254, 221, 0);" transform="matrix(0.704091, 0.71011, -0.71011, 0.704091, 380.690216, 285.758362)"/>
  <circle class="st2" cx="-275" cy="420.9" r="3" style="fill: rgb(1, 33, 105);"/>
</svg>