<?xml version="1.0" encoding="utf-8"?>
<svg version="1.1" id="Layer_1" x="0px" y="0px" viewBox="-286 409.9 22 22" style="enable-background:new -286 409.9 22 22;" xmlns="http://www.w3.org/2000/svg">
  <style type="text/css">
	.st0{fill:#B82E22;}
	.st1{fill:#FFFFFF;}
	.st2{fill:#243B72;}
	.st3{fill:#2E59BA;}
	.st4{fill:#E2E2E2;}
</style>
  <circle class="st0" cx="-275" cy="420.9" r="8"/>
  <circle class="st1" cx="-275" cy="420.9" r="11"/>
  <circle class="st2" cx="-275" cy="420.9" r="8"/>
  <path class="st2" d="M -275 428.9 C -279.4 428.9 -283 425.3 -283 420.9 C -283 416.5 -279.4 412.9 -275 412.9 L -275 428.9 Z" style="fill: rgb(0, 102, 51);"/>
  <path class="st3" d="M -275 412.9 C -270.6 412.9 -267 416.5 -267 420.9 C -267 425.3 -270.6 428.9 -275 428.9 L -275 412.9 Z" style="fill: rgb(255, 255, 255);"/>
  <g transform="matrix(1, 0, 0, 1, 0, -0.000031)">
    <path class="st4" d="M-275,409.9c-6.1,0-11,4.9-11,11c0,6.1,4.9,11,11,11s11-4.9,11-11C-264,414.8-268.9,409.9-275,409.9z M-275,428.9c-4.4,0-8-3.6-8-8c0-4.4,3.6-8,8-8s8,3.6,8,8C-267,425.3-270.6,428.9-275,428.9z" style=""/>
  </g>
  <circle class="st2" cx="275" cy="-420.9" r="5" style="fill: rgb(239, 51, 64);" transform="matrix(-1, 0, 0, -1, 0, 0)"/>
  <circle class="st2" cx="273" cy="-420.9" r="4" style="fill: rgb(255, 255, 255);" transform="matrix(-1, 0, 0, -1, 0, 0)"/>
  <path class="st2" d="M -275.008 424.349 C -275.98 423.833 -276.998 422.563 -276.998 420.918 C -276.998 419.274 -276.043 418.012 -275.024 417.461 L -275.008 424.349 Z" style="fill: rgb(0, 102, 51);"/>
</svg>