<?xml version="1.0" encoding="utf-8"?>
<svg version="1.1" id="Layer_1" x="0px" y="0px" viewBox="-286 409.9 22 22" style="enable-background:new -286 409.9 22 22;" xmlns="http://www.w3.org/2000/svg">
  <style type="text/css">
	.st0{fill:#2F59BA;}
	.st1{fill:#E2E2E2;}
</style>
  <circle class="st0" cx="-275" cy="420.9" r="8" style="fill: rgb(0, 106, 167);"/>
  <rect x="-335.198" y="440.333" class="st0" width="3.5" height="17.668" style="fill: rgb(254, 204, 2);" transform="matrix(0, 1, -1, 0.000699, 174.167007, 754.034058)"/>
  <rect x="-335.192" y="440.333" class="st0" width="3.5" height="17.668" style="fill: rgb(254, 204, 2);" transform="matrix(1, 0, 0.000699, 1, 58.128017, -28.267008)"/>
  <g>
    <path class="st1" d="M-275,409.9c-6.1,0-11,4.9-11,11c0,6.1,4.9,11,11,11s11-4.9,11-11C-264,414.8-268.9,409.9-275,409.9z M-275,428.9c-4.4,0-8-3.6-8-8c0-4.4,3.6-8,8-8s8,3.6,8,8C-267,425.3-270.6,428.9-275,428.9z"/>
  </g>
</svg>